<mxfile host="app.diagrams.net" modified="2020-07-09T13:17:14.063Z" agent="5.0 (Macintosh; Intel Mac OS X 10_15_5) AppleWebKit/537.36 (KHTML, like Gecko) Chrome/83.0.4103.116 Safari/537.36" etag="ghYZUj2Zg_9khKOQS6B8" version="13.4.1" type="github">
  <diagram id="C5RBs43oDa-KdzZeNtuy" name="Page-1">
    <mxGraphModel dx="1113" dy="722" grid="1" gridSize="10" guides="1" tooltips="1" connect="1" arrows="1" fold="1" page="1" pageScale="1" pageWidth="827" pageHeight="1169" math="0" shadow="0">
      <root>
        <mxCell id="WIyWlLk6GJQsqaUBKTNV-0" />
        <mxCell id="WIyWlLk6GJQsqaUBKTNV-1" parent="WIyWlLk6GJQsqaUBKTNV-0" />
        <mxCell id="X4LbRBdQvnOnpPpvs3lO-9" value="" style="rounded=0;html=1;jettySize=auto;orthogonalLoop=1;fontSize=11;endArrow=block;endFill=0;endSize=8;strokeWidth=1;shadow=0;labelBackgroundColor=none;edgeStyle=orthogonalEdgeStyle;exitX=1;exitY=0.5;exitDx=0;exitDy=0;" edge="1" parent="WIyWlLk6GJQsqaUBKTNV-1" source="X4LbRBdQvnOnpPpvs3lO-16" target="X4LbRBdQvnOnpPpvs3lO-11">
          <mxGeometry relative="1" as="geometry">
            <mxPoint x="200" y="290" as="sourcePoint" />
          </mxGeometry>
        </mxCell>
        <mxCell id="X4LbRBdQvnOnpPpvs3lO-10" style="edgeStyle=orthogonalEdgeStyle;rounded=0;orthogonalLoop=1;jettySize=auto;html=1;entryX=0.5;entryY=1;entryDx=0;entryDy=0;" edge="1" parent="WIyWlLk6GJQsqaUBKTNV-1" source="X4LbRBdQvnOnpPpvs3lO-11" target="X4LbRBdQvnOnpPpvs3lO-13">
          <mxGeometry relative="1" as="geometry" />
        </mxCell>
        <mxCell id="X4LbRBdQvnOnpPpvs3lO-11" value="preprod" style="rhombus;whiteSpace=wrap;html=1;shadow=0;fontFamily=Helvetica;fontSize=12;align=center;strokeWidth=1;spacing=6;spacingTop=-4;" vertex="1" parent="WIyWlLk6GJQsqaUBKTNV-1">
          <mxGeometry x="320" y="250" width="100" height="80" as="geometry" />
        </mxCell>
        <mxCell id="X4LbRBdQvnOnpPpvs3lO-12" style="edgeStyle=orthogonalEdgeStyle;rounded=0;orthogonalLoop=1;jettySize=auto;html=1;entryX=0;entryY=0.5;entryDx=0;entryDy=0;" edge="1" parent="WIyWlLk6GJQsqaUBKTNV-1" source="X4LbRBdQvnOnpPpvs3lO-13" target="X4LbRBdQvnOnpPpvs3lO-14">
          <mxGeometry relative="1" as="geometry" />
        </mxCell>
        <mxCell id="X4LbRBdQvnOnpPpvs3lO-13" value="release/" style="rounded=1;whiteSpace=wrap;html=1;fontSize=12;glass=0;strokeWidth=1;shadow=0;" vertex="1" parent="WIyWlLk6GJQsqaUBKTNV-1">
          <mxGeometry x="310" y="170" width="120" height="40" as="geometry" />
        </mxCell>
        <mxCell id="X4LbRBdQvnOnpPpvs3lO-14" value="prod" style="rhombus;whiteSpace=wrap;html=1;shadow=0;fontFamily=Helvetica;fontSize=12;align=center;strokeWidth=1;spacing=6;spacingTop=-4;" vertex="1" parent="WIyWlLk6GJQsqaUBKTNV-1">
          <mxGeometry x="560" y="250" width="100" height="80" as="geometry" />
        </mxCell>
        <mxCell id="X4LbRBdQvnOnpPpvs3lO-15" style="edgeStyle=orthogonalEdgeStyle;rounded=0;orthogonalLoop=1;jettySize=auto;html=1;entryX=0.5;entryY=1;entryDx=0;entryDy=0;" edge="1" parent="WIyWlLk6GJQsqaUBKTNV-1" source="X4LbRBdQvnOnpPpvs3lO-16" target="X4LbRBdQvnOnpPpvs3lO-17">
          <mxGeometry relative="1" as="geometry" />
        </mxCell>
        <mxCell id="X4LbRBdQvnOnpPpvs3lO-16" value="develop" style="rhombus;whiteSpace=wrap;html=1;shadow=0;fontFamily=Helvetica;fontSize=12;align=center;strokeWidth=1;spacing=6;spacingTop=-4;" vertex="1" parent="WIyWlLk6GJQsqaUBKTNV-1">
          <mxGeometry x="100" y="250" width="100" height="80" as="geometry" />
        </mxCell>
        <mxCell id="X4LbRBdQvnOnpPpvs3lO-17" value="feature/" style="rounded=1;whiteSpace=wrap;html=1;fontSize=12;glass=0;strokeWidth=1;shadow=0;" vertex="1" parent="WIyWlLk6GJQsqaUBKTNV-1">
          <mxGeometry x="90" y="170" width="120" height="40" as="geometry" />
        </mxCell>
      </root>
    </mxGraphModel>
  </diagram>
</mxfile>
